<?xml version="1.0" standalone="no"?>
<!DOCTYPE svg PUBLIC "-//W3C//DTD SVG 20010904//EN"
 "http://www.w3.org/TR/2001/REC-SVG-20010904/DTD/svg10.dtd">
<svg version="1.0" xmlns="http://www.w3.org/2000/svg"
 width="435.000000pt" height="403.000000pt" viewBox="0 0 435.000000 403.000000"
 preserveAspectRatio="xMidYMid meet">

<g transform="translate(0.000000,403.000000) scale(0.100000,-0.100000)"
fill="#000000" stroke="none">
<path d="M2175 3773 c-24 -4 -45 -24 -110 -108 -90 -115 -86 -115 -99 8 -7 63
-9 67 -33 67 -23 0 -24 -3 -19 -37 3 -21 13 -101 21 -178 20 -169 19 -165 45
-158 20 5 21 10 14 69 -6 60 -4 67 21 100 l27 35 52 -58 c29 -32 66 -73 82
-91 24 -27 33 -31 56 -25 27 8 26 9 -67 108 l-93 101 50 59 c48 59 93 117 86
113 -2 0 -16 -3 -33 -5z"/>
<path d="M2360 3763 c0 -4 -9 -80 -20 -167 -25 -201 -25 -206 0 -206 11 0 20
1 21 3 0 1 6 38 12 82 7 44 17 79 22 79 6 -1 44 -5 86 -9 71 -6 77 -5 81 13 5
18 -1 21 -56 27 -125 13 -119 9 -111 74 4 31 8 57 9 59 2 1 34 -2 72 -8 106
-15 134 -13 134 9 0 16 -14 20 -107 30 -60 7 -116 15 -125 17 -10 3 -18 2 -18
-3z"/>
<path d="M2731 3633 c-41 -139 -82 -295 -79 -298 2 -2 12 -5 22 -7 17 -3 25
19 69 175 42 149 48 180 36 188 -24 15 -28 11 -48 -58z"/>
<path d="M1610 3654 c-73 -32 -110 -86 -110 -161 1 -125 111 -240 207 -217 88
21 143 77 143 147 0 34 -3 38 -21 35 -16 -2 -23 -11 -25 -36 -2 -18 -9 -42
-14 -53 -25 -45 -118 -64 -166 -32 -34 22 -75 106 -77 158 -2 57 18 91 69 116
46 22 70 20 114 -11 21 -15 28 -16 42 -6 16 12 16 14 -5 34 -45 42 -99 51
-157 26z"/>
<path d="M2892 3518 c-82 -156 -114 -219 -110 -223 2 -1 58 -30 125 -64 113
-56 123 -59 132 -43 9 16 -3 25 -93 73 l-104 54 29 57 29 58 92 -46 c87 -44
92 -45 105 -28 12 17 6 22 -82 66 l-95 48 25 50 c14 28 30 50 37 50 6 0 49
-21 95 -46 80 -44 113 -50 113 -22 0 10 -216 128 -234 128 -3 0 -31 -51 -64
-112z"/>
<path d="M1179 3420 c-43 -23 -86 -71 -95 -106 -13 -50 2 -119 34 -166 79
-115 207 -127 296 -28 59 66 60 142 3 226 -57 86 -158 117 -238 74z m128 -40
c111 -50 138 -216 43 -265 -68 -35 -147 -9 -195 64 -54 81 -36 163 45 203 44
22 55 22 107 -2z"/>
<path d="M3211 3280 c-61 -77 -112 -144 -114 -149 -2 -7 49 -50 170 -143 8 -6
15 -3 22 10 8 16 0 26 -60 72 -38 30 -69 57 -69 61 0 3 45 63 100 134 80 101
98 130 89 141 -6 8 -15 14 -19 14 -5 0 -58 -63 -119 -140z"/>
<path d="M3463 3047 c-78 -62 -142 -114 -143 -118 -1 -13 114 -142 143 -160
117 -71 319 88 277 217 -12 34 -115 175 -128 173 -4 0 -71 -51 -149 -112z
m164 36 c40 -50 73 -110 73 -132 0 -67 -98 -151 -176 -151 -39 0 -47 5 -93 57
-35 40 -48 60 -41 67 15 15 214 174 219 175 2 1 10 -7 18 -16z"/>
<path d="M859 3107 c-26 -21 -139 -161 -139 -171 0 -4 263 -214 287 -229 7 -5
16 1 23 12 9 18 3 27 -55 72 l-65 51 30 39 c37 46 65 53 168 41 64 -7 74 -6
89 10 9 10 13 21 9 26 -4 4 -51 7 -105 7 l-97 0 10 36 c13 50 1 86 -37 109
-42 26 -86 25 -118 -3z m101 -47 c11 -11 20 -26 20 -32 0 -20 -26 -65 -66
-113 l-36 -45 -45 32 c-25 18 -47 36 -49 40 -6 9 80 124 98 131 28 11 59 6 78
-13z"/>
<path d="M2175 2915 c-5 -2 -21 -6 -35 -9 -14 -3 -39 -15 -57 -25 l-32 -20 27
-52 c37 -72 37 -146 -1 -218 -15 -29 -27 -56 -27 -60 0 -15 79 -51 124 -57 54
-8 122 9 160 39 l27 22 -27 49 c-39 70 -40 152 -1 221 l28 49 -23 18 c-38 29
-131 54 -163 43z"/>
<path d="M2021 2827 c-23 -28 -41 -88 -41 -137 0 -52 31 -130 51 -130 19 0 49
84 49 140 0 33 -8 72 -20 98 -21 47 -23 48 -39 29z"/>
<path d="M2354 2805 c-27 -42 -31 -158 -7 -204 24 -46 37 -48 56 -8 35 73 30
166 -12 218 l-18 23 -19 -29z"/>
<path d="M1435 2676 c-63 -20 -100 -42 -135 -82 -137 -157 -89 -436 110 -634
88 -87 130 -112 299 -175 68 -25 148 -57 177 -71 67 -32 175 -112 172 -128 -2
-6 8 -26 20 -44 13 -18 22 -39 19 -46 -3 -8 -50 -72 -105 -142 -135 -176 -132
-168 -86 -210 60 -57 73 -50 189 103 117 153 91 155 222 -17 67 -88 95 -116
114 -118 34 -4 89 41 89 72 0 14 -46 83 -114 172 l-115 148 28 35 c16 20 26
41 24 48 -5 15 100 94 171 127 30 14 108 46 175 71 155 57 186 74 260 135 164
137 259 368 218 533 -20 81 -55 138 -109 177 -212 154 -542 -13 -675 -341 -19
-48 -28 -97 -39 -232 -8 -95 -22 -198 -30 -230 -19 -76 -60 -168 -73 -165 -5
2 -17 -6 -25 -17 -15 -19 -17 -19 -30 -2 -7 9 -19 17 -25 17 -16 0 -56 89 -75
165 -9 33 -22 134 -30 225 -18 214 -44 288 -140 417 -126 167 -331 256 -481
209z m45 -41 c-14 -16 -40 -20 -40 -6 0 10 17 19 39 20 11 1 11 -2 1 -14z
m109 1 c10 -11 7 -18 -11 -30 -21 -15 -24 -15 -40 6 -10 13 -18 26 -18 31 0
13 57 7 69 -7z m1291 7 c0 -5 -9 -19 -19 -33 -19 -24 -20 -24 -40 -6 -16 15
-18 22 -10 33 12 14 69 19 69 6z m70 -3 c10 -6 12 -12 4 -20 -7 -7 -16 -5 -29
10 -14 15 -15 20 -4 20 8 0 21 -5 29 -10z m-1521 -24 c10 -11 7 -18 -11 -30
-21 -15 -24 -15 -35 0 -10 14 -9 20 5 30 22 17 27 17 41 0z m93 -3 c24 -21 23
-40 -2 -53 -17 -9 -24 -7 -40 12 -17 21 -17 25 -3 41 20 21 22 21 45 0z m151
6 c32 -17 32 -18 11 -33 -17 -13 -22 -12 -41 6 -13 12 -23 17 -23 11 0 -6 7
-16 15 -23 20 -17 19 -23 -6 -38 -18 -11 -24 -11 -40 4 -26 24 -24 36 14 61
38 26 42 26 70 12z m1097 -1 c0 -6 -7 -20 -16 -29 -13 -14 -21 -16 -35 -8 -25
13 -24 24 4 37 30 14 47 15 47 0z m153 -5 c14 -16 14 -20 -3 -41 -16 -19 -23
-21 -40 -12 -24 13 -25 27 -3 52 20 22 26 22 46 1z m88 4 c14 -10 15 -16 5
-29 -11 -15 -15 -16 -34 -2 -12 8 -19 21 -16 29 7 18 23 19 45 2z m-198 -25
c15 -16 15 -20 1 -40 -18 -26 -24 -27 -49 -8 -18 13 -18 14 1 39 23 32 26 32
47 9z m-1439 -18 c6 -15 -17 -43 -36 -44 -14 0 -15 26 0 43 19 21 28 22 36 1z
m99 -50 c-25 -19 -30 -18 -49 11 -16 24 -16 27 2 40 17 13 21 12 42 -11 22
-25 22 -27 5 -40z m277 16 c0 -4 -9 -15 -19 -24 -18 -16 -20 -16 -40 12 l-21
30 23 15 c20 15 23 14 40 -5 9 -11 17 -24 17 -28z m959 -12 l-22 -30 -20 20
c-19 20 -19 22 -3 46 16 25 18 25 41 10 l25 -16 -21 -30z m280 35 c6 -4 -28
-53 -37 -53 -4 0 -16 7 -26 15 -19 15 -19 15 4 40 19 20 26 23 39 13 9 -7 18
-13 20 -15z m75 12 c14 -15 12 -45 -3 -45 -19 0 -42 27 -35 43 8 21 18 22 38
2z m-1477 -59 c-2 -5 -11 -14 -21 -20 -14 -9 -21 -6 -38 14 l-20 24 23 19 c22
18 23 18 41 -5 10 -13 16 -27 15 -32z m1286 -2 c-18 -28 -35 -31 -53 -9 -10
12 -9 20 4 40 16 24 18 24 41 9 23 -15 23 -17 8 -40z m-1453 -29 c-18 -21 -36
-19 -55 8 -15 21 -14 23 6 39 20 17 22 17 41 -7 16 -21 18 -28 8 -40z m1624
37 c7 -12 -22 -52 -38 -52 -8 0 -19 6 -25 14 -19 23 14 69 39 56 11 -6 21 -14
24 -18z m-1724 5 c0 -14 -20 -37 -32 -37 -4 0 -2 11 4 25 12 27 28 34 28 12z
m364 -9 c17 -23 14 -33 -14 -48 -14 -8 -21 -4 -35 17 -17 25 -17 27 1 40 24
18 30 17 48 -9z m137 2 c21 -17 22 -21 9 -30 -11 -7 -19 -4 -32 13 -32 40 -17
51 23 17z m799 13 c-1 -5 -10 -19 -21 -32 -16 -19 -22 -22 -32 -12 -9 10 -7
17 12 32 24 20 41 25 41 12z m149 -7 c19 -23 -14 -69 -39 -56 -28 15 -31 25
-14 48 18 25 37 28 53 8z m339 -11 c6 -14 8 -25 4 -25 -12 0 -32 23 -32 37 0
22 16 15 28 -12z m-1585 -19 c13 -19 13 -26 4 -34 -28 -21 -36 -21 -52 4 -13
20 -14 28 -4 40 17 21 35 17 52 -10z m259 7 c23 -20 23 -39 1 -52 -14 -7 -24
-4 -40 11 -13 12 -23 17 -23 11 0 -6 7 -16 15 -23 20 -17 19 -23 -6 -38 -18
-11 -24 -11 -40 4 -27 24 -23 35 24 71 51 38 46 37 69 16z m882 -6 c15 -24
-20 -60 -45 -46 -23 12 -24 27 -2 51 19 21 32 20 47 -5z m265 9 c10 -12 9 -20
-4 -40 -16 -25 -24 -25 -52 -4 -9 8 -9 15 4 34 17 27 35 31 52 10z m-1566 -30
c13 -19 13 -26 4 -34 -28 -21 -36 -21 -52 4 -13 20 -14 28 -4 40 17 21 35 17
52 -10z m259 7 c24 -21 23 -40 -2 -53 -17 -9 -24 -7 -40 12 -17 21 -17 25 -3
41 20 21 22 21 45 0z m1201 0 c14 -16 14 -20 -3 -41 -16 -19 -23 -21 -40 -12
-24 13 -25 27 -3 52 20 22 26 22 46 1z m266 3 c10 -12 9 -20 -4 -40 -16 -25
-24 -25 -52 -4 -9 8 -9 15 4 34 17 27 35 31 52 10z m-1623 -31 c16 -24 16 -27
-2 -40 -26 -20 -29 -19 -49 11 -16 24 -16 26 2 40 25 19 30 18 49 -11z m409 5
c15 -16 16 -23 6 -33 -10 -9 -16 -7 -32 12 -10 13 -19 27 -19 32 0 16 26 9 45
-11z m689 11 c3 -5 -3 -20 -13 -32 -16 -19 -22 -21 -32 -12 -10 10 -9 17 6 33
20 22 31 25 39 11z m150 -6 c18 -13 18 -16 2 -40 -19 -29 -24 -30 -49 -10 -18
13 -18 14 0 39 21 30 22 30 47 11z m269 -2 c14 -16 14 -20 -4 -42 -17 -20 -21
-22 -37 -10 -9 7 -19 14 -21 16 -6 4 29 53 38 53 4 0 15 -8 24 -17z m-1677
-28 c16 -24 16 -27 -2 -40 -26 -19 -32 -19 -39 5 -7 23 2 60 15 60 5 0 17 -11
26 -25z m274 -20 c0 -7 -7 -18 -15 -25 -13 -10 -19 -10 -35 5 -25 22 -25 34
-2 51 14 10 20 10 35 -3 9 -9 17 -22 17 -28z m270 -6 c0 -3 -9 -14 -19 -23
-18 -16 -20 -16 -40 13 l-21 30 22 15 c21 15 24 15 40 -6 10 -13 18 -26 18
-29z m763 -5 c-17 -27 -35 -31 -52 -10 -10 12 -9 20 4 40 16 24 18 24 41 10
22 -15 22 -17 7 -40z m276 29 c6 -4 -28 -53 -37 -53 -4 0 -16 7 -26 15 -19 15
-19 15 4 40 19 20 26 23 39 13 9 -7 18 -13 20 -15z m247 1 c9 -36 -14 -58 -40
-39 -18 13 -18 16 -2 40 21 32 34 32 42 -1z m-1716 -39 c0 -7 -7 -18 -15 -25
-13 -10 -19 -10 -35 5 -25 22 -25 41 -3 54 19 10 53 -11 53 -34z m260 -20
c-18 -21 -36 -19 -55 8 -15 21 -14 23 6 39 20 17 22 17 41 -7 16 -21 18 -28 8
-40z m1097 43 c9 -8 9 -15 -4 -34 -17 -27 -35 -31 -52 -10 -10 12 -9 20 4 40
16 25 24 25 52 4z m273 -14 c0 -6 -9 -19 -20 -29 -16 -15 -22 -15 -35 -5 -19
16 -19 29 1 51 13 15 20 16 35 6 10 -6 19 -17 19 -23z m-1530 -49 c-18 -21
-36 -19 -55 8 -15 21 -14 23 6 39 20 17 22 17 41 -7 16 -21 18 -28 8 -40z
m404 40 c20 -30 20 -31 2 -38 -16 -7 -50 38 -41 53 10 16 22 12 39 -15z m591
9 c0 -5 -8 -20 -17 -34 -13 -18 -21 -21 -29 -13 -8 8 -6 18 6 37 17 25 40 31
40 10z m429 -12 c7 -12 -22 -52 -38 -52 -8 0 -19 6 -25 14 -19 23 14 69 39 56
11 -6 21 -14 24 -18z m-1161 -6 c13 -19 13 -26 4 -34 -28 -21 -36 -21 -52 4
-13 20 -14 28 -4 40 17 21 35 17 52 -10z m886 10 c19 -23 -14 -69 -39 -56 -28
15 -31 25 -14 48 18 25 37 28 53 8z m-1309 -61 c-18 -21 -36 -19 -55 8 -15 21
-14 23 6 39 20 17 22 17 41 -7 16 -21 18 -28 8 -40z m1737 43 c9 -8 9 -15 -4
-34 -17 -27 -35 -31 -52 -10 -10 12 -9 20 4 40 16 25 24 25 52 4z m-1474 -12
c13 -19 13 -26 4 -34 -28 -21 -36 -21 -52 4 -13 20 -14 28 -4 40 17 21 35 17
52 -10z m259 7 c24 -21 23 -40 -2 -53 -17 -9 -24 -7 -40 12 -17 21 -17 25 -3
41 20 21 22 21 45 0z m682 -6 c15 -24 -20 -60 -45 -46 -23 12 -24 27 -2 51 19
21 32 20 47 -5z m265 9 c10 -12 9 -20 -4 -40 -16 -25 -24 -25 -52 -4 -9 8 -9
15 4 34 17 27 35 31 52 10z m-1366 -30 c15 -23 15 -25 -8 -40 -23 -15 -25 -15
-41 9 -13 20 -14 28 -4 40 18 22 35 19 53 -9z m263 -1 c9 -14 15 -27 13 -28
-2 -2 -12 -9 -21 -16 -16 -12 -20 -10 -37 10 -18 22 -18 26 -4 42 21 23 30 22
49 -8z m997 8 c14 -16 14 -20 -3 -41 -16 -19 -23 -21 -40 -12 -24 13 -25 27
-3 52 20 22 26 22 46 1z m266 3 c10 -12 9 -20 -4 -40 -16 -25 -24 -25 -52 -4
-9 8 -9 15 4 34 17 27 35 31 52 10z m-1691 -68 c-26 -19 -38 -9 -38 33 0 39
12 43 37 12 l23 -28 -22 -17z m268 37 c9 -14 15 -27 13 -28 -2 -2 -12 -9 -21
-16 -16 -12 -20 -10 -37 10 -18 22 -18 26 -4 42 21 23 30 22 49 -8z m264 -42
c-19 -13 -23 -13 -41 3 -24 21 -24 33 -1 50 15 12 20 10 40 -12 l23 -26 -21
-15z m130 48 c17 -33 12 -46 -10 -26 -21 19 -27 45 -10 45 5 0 14 -9 20 -19z
m510 10 c0 -5 -9 -19 -20 -32 -21 -26 -27 -11 -10 22 11 19 30 26 30 10z m143
-5 c22 -17 22 -29 -3 -51 -17 -15 -22 -16 -37 -4 -10 7 -20 14 -21 15 -5 3 31
53 38 53 3 0 13 -6 23 -13z m270 -1 c18 -13 18 -14 0 -39 -21 -30 -22 -30 -47
-11 -18 13 -18 16 -2 40 19 29 24 30 49 10z m257 -12 c0 -44 -12 -54 -38 -35
-21 16 -21 19 -7 40 22 31 45 28 45 -5z m-1734 -18 c16 -24 16 -27 -2 -40 -25
-19 -26 -19 -47 11 -18 25 -18 26 0 39 25 20 30 19 49 -10z m268 -32 c-17 -27
-31 -26 -50 3 -17 25 -17 27 1 40 17 13 22 12 39 -6 16 -16 18 -24 10 -37z
m276 6 c0 -3 -8 -14 -19 -23 -18 -16 -20 -16 -41 11 l-21 28 22 18 c22 18 23
18 41 -5 10 -13 18 -26 18 -29z m563 -5 c-17 -27 -35 -31 -52 -10 -10 12 -9
20 4 40 16 24 18 24 41 10 22 -15 22 -17 7 -40z m277 20 c0 -6 -9 -19 -20 -29
-16 -15 -22 -15 -35 -5 -19 16 -19 29 1 51 13 15 20 16 35 6 10 -6 19 -17 19
-23z m253 21 c18 -13 18 -14 0 -39 -21 -30 -22 -30 -47 -11 -18 13 -18 16 -2
40 19 29 24 30 49 10z m-1523 -50 c0 -7 -7 -18 -15 -25 -13 -10 -19 -10 -35 5
-25 22 -25 41 -3 54 19 10 53 -11 53 -34z m267 -9 c-2 -5 -11 -14 -21 -20 -14
-9 -21 -6 -38 14 l-20 24 23 19 c22 18 23 18 41 -5 10 -13 16 -27 15 -32z
m897 26 c7 -12 -22 -52 -38 -52 -8 0 -19 6 -25 14 -19 23 14 69 39 56 11 -6
21 -14 24 -18z m266 -6 c0 -7 -9 -21 -20 -31 -16 -15 -22 -15 -35 -5 -19 16
-19 29 1 51 13 14 21 16 35 8 11 -5 19 -16 19 -23z m-1599 -50 c-20 -19 -21
-19 -41 -1 -25 22 -26 41 -2 54 13 7 23 4 40 -12 22 -21 22 -21 3 -41z m269
-1 c-18 -21 -36 -19 -55 8 -15 21 -14 23 6 39 20 17 22 17 41 -7 16 -21 18
-28 8 -40z m1224 37 c7 -12 -22 -52 -38 -52 -8 0 -19 7 -26 15 -17 21 18 67
42 54 9 -5 19 -13 22 -17z m247 18 c25 -14 24 -32 -1 -55 -19 -17 -22 -18 -37
-2 -15 14 -15 20 -3 42 15 29 15 28 41 15z m-1208 -24 c13 -19 13 -26 4 -34
-28 -21 -36 -21 -52 4 -13 20 -14 28 -4 40 17 21 35 17 52 -10z m686 10 c19
-23 -14 -69 -39 -56 -28 15 -31 25 -14 48 18 25 37 28 53 8z m-1114 -62 c-25
-19 -31 -18 -50 9 -15 21 -14 23 6 39 20 17 22 17 42 -8 20 -26 20 -27 2 -40z
m1549 38 c7 -12 -22 -52 -38 -52 -8 0 -19 7 -26 15 -17 21 18 67 42 54 9 -5
19 -13 22 -17z m-1281 -6 c13 -19 13 -26 4 -34 -28 -21 -36 -21 -52 4 -13 20
-14 28 -4 40 17 21 35 17 52 -10z m263 -1 c9 -14 15 -27 13 -28 -2 -2 -12 -9
-21 -16 -16 -12 -20 -10 -37 10 -18 22 -18 26 -4 42 21 23 30 22 49 -8z m476
8 c18 -16 18 -17 -3 -39 -17 -18 -26 -21 -40 -13 -23 12 -24 27 -2 51 20 22
22 22 45 1z m267 3 c10 -12 9 -20 -4 -40 -16 -25 -24 -25 -52 -4 -9 8 -9 15 4
34 17 27 35 31 52 10z m-1167 -30 c17 -23 17 -25 -7 -40 -23 -15 -25 -15 -41
9 -13 20 -14 28 -4 40 17 21 32 18 52 -9z m264 -1 c16 -24 16 -27 -2 -40 -25
-19 -26 -19 -47 11 -18 25 -18 26 0 39 25 20 30 19 49 -10z m797 8 c14 -16 14
-20 -4 -42 -17 -20 -21 -22 -37 -10 -9 7 -19 14 -21 16 -6 4 29 53 38 53 4 0
15 -8 24 -17z m267 2 c10 -12 9 -20 -4 -40 -16 -25 -24 -25 -53 -2 -10 7 -8
14 5 33 20 27 35 30 52 9z m-1491 -24 l21 -29 -25 -16 c-23 -15 -25 -15 -41 9
-16 24 -16 27 1 45 10 11 19 20 21 20 1 0 12 -13 23 -29z m267 -6 c16 -24 16
-27 -2 -40 -26 -20 -29 -19 -49 11 -16 24 -16 26 2 40 25 19 30 18 49 -11z
m264 -42 c-19 -13 -23 -13 -41 3 -24 21 -24 33 -1 50 15 12 20 10 40 -12 l23
-26 -21 -15z m600 31 c0 -6 -9 -19 -20 -29 -17 -15 -22 -16 -37 -4 -10 7 -20
15 -22 16 -3 2 6 14 18 27 20 21 26 23 42 13 11 -7 19 -17 19 -23z m253 21
c18 -13 18 -14 0 -39 -21 -30 -22 -30 -47 -11 -18 13 -18 16 -2 40 19 29 24
30 49 10z m266 1 c10 -12 9 -20 -4 -40 -16 -24 -18 -24 -41 -10 -22 15 -22 17
-7 40 17 27 35 31 52 10z m-1544 -32 c16 -24 16 -26 -2 -40 -24 -18 -25 -18
-46 12 -18 25 -18 26 0 39 25 20 28 19 48 -11z m275 -19 c0 -7 -7 -18 -15 -25
-13 -10 -19 -10 -35 5 -25 22 -25 41 -3 54 19 10 53 -11 53 -34z m910 9 c0 -6
-9 -19 -20 -29 -16 -15 -22 -15 -35 -5 -19 16 -19 29 1 51 13 15 20 16 35 6
10 -6 19 -17 19 -23z m253 21 c18 -13 18 -14 0 -39 -21 -30 -22 -30 -47 -11
-18 13 -18 16 -2 40 19 29 24 30 49 10z m-933 -32 l-1 -38 -19 24 c-16 18 -18
27 -9 37 19 24 29 16 29 -23z m404 -8 c-21 -33 -24 -32 -24 10 0 33 2 35 20
25 19 -10 19 -12 4 -35z m-1070 13 c12 -16 13 -25 4 -35 -9 -11 -14 -9 -29 13
-28 43 -4 64 25 22z m276 -23 c0 -7 -7 -18 -15 -25 -13 -10 -19 -10 -35 5 -25
22 -25 41 -3 54 19 10 53 -11 53 -34z m260 -20 c-18 -21 -36 -19 -55 8 -15 21
-14 23 6 39 20 17 22 17 41 -7 16 -21 18 -28 8 -40z m704 37 c7 -12 -22 -52
-38 -52 -8 0 -19 6 -25 14 -19 23 14 69 39 56 11 -6 21 -14 24 -18z m266 -6
c0 -7 -9 -21 -20 -31 -16 -15 -22 -15 -35 -5 -19 16 -19 29 1 51 13 14 21 16
35 8 11 -5 19 -16 19 -23z m240 17 c0 -10 -7 -26 -14 -36 -11 -14 -15 -15 -24
-4 -9 10 -7 19 4 35 18 26 34 28 34 5z m-1630 -48 c0 -7 -7 -18 -15 -25 -13
-10 -19 -10 -35 5 -25 22 -25 41 -3 54 19 10 53 -11 53 -34z m1284 17 c7 -12
-22 -52 -38 -52 -8 0 -19 7 -26 15 -17 21 18 67 42 54 9 -5 19 -13 22 -17z
m266 -6 c0 -7 -9 -21 -20 -31 -19 -17 -21 -17 -40 0 l-20 18 21 23 c17 18 26
21 40 13 11 -5 19 -16 19 -23z m-1295 4 c15 -16 15 -22 5 -35 -17 -21 -36 -19
-54 7 -11 16 -13 25 -4 35 15 18 32 16 53 -7z m268 -4 c13 -19 13 -26 4 -34
-29 -22 -37 -22 -53 3 -13 20 -14 28 -4 40 18 22 35 19 53 -9z m486 10 c10
-12 9 -20 -4 -40 -16 -25 -24 -25 -52 -4 -9 8 -9 15 4 34 17 27 35 31 52 10z
m-914 -62 c-25 -19 -31 -18 -50 9 -15 21 -14 23 6 39 20 17 22 17 42 -8 20
-26 20 -27 2 -40z m1349 38 c7 -12 -22 -52 -38 -52 -8 0 -19 7 -26 15 -17 21
18 67 42 54 9 -5 19 -13 22 -17z m-1082 -6 c17 -23 17 -25 -6 -40 -23 -14 -25
-14 -41 10 -13 20 -14 28 -4 40 16 20 31 17 51 -10z m807 10 c10 -12 9 -20 -4
-40 -16 -25 -24 -25 -52 -4 -9 8 -9 15 4 34 17 27 35 31 52 10z m-1236 -21
c19 -26 16 -45 -7 -45 -22 0 -47 45 -33 59 15 15 19 14 40 -14z m1651 -20
c-17 -26 -38 -32 -49 -15 -3 5 2 21 12 34 14 18 22 22 35 15 17 -9 17 -11 2
-34z m-1388 18 c19 -25 17 -36 -6 -51 -17 -10 -22 -9 -36 13 -13 20 -14 28 -4
40 16 20 30 19 46 -2z m270 -8 c16 -24 16 -27 -2 -40 -26 -20 -29 -19 -49 11
-16 24 -16 26 2 40 25 19 30 18 49 -11z m597 8 c14 -16 14 -20 -4 -42 -17 -20
-21 -22 -37 -10 -9 7 -19 14 -21 16 -6 4 29 53 38 53 4 0 15 -8 24 -17z m267
2 c10 -12 9 -20 -4 -40 -16 -24 -18 -24 -41 -9 -24 15 -24 17 -7 40 20 27 35
30 52 9z m-1292 -24 l21 -29 -24 -16 c-23 -15 -25 -15 -41 9 -16 24 -16 27 1
45 10 11 19 20 20 20 1 0 11 -13 23 -29z m268 -6 c16 -24 16 -27 -2 -40 -26
-20 -29 -19 -49 12 -17 25 -17 27 1 40 25 18 31 17 50 -12z m244 -11 c0 -37
-14 -42 -34 -11 -8 13 -6 20 9 31 11 9 21 16 23 16 1 0 2 -16 2 -36z m420 3
c0 -14 -20 -37 -32 -37 -4 0 -8 16 -8 35 0 33 2 35 20 25 11 -6 20 -16 20 -23z
m253 18 c18 -13 18 -14 0 -39 -21 -30 -22 -30 -47 -11 -18 13 -18 16 -2 40 19
29 24 30 49 10z m266 1 c10 -12 9 -20 -4 -40 -16 -24 -18 -24 -41 -10 -22 15
-22 17 -7 40 17 27 35 31 52 10z m-1345 -28 c14 -20 14 -24 -1 -40 -21 -23
-24 -23 -47 9 -19 25 -19 26 -1 39 25 19 31 18 49 -8z m276 -23 c0 -7 -7 -18
-15 -25 -13 -10 -19 -10 -35 5 -25 22 -25 41 -3 54 19 10 53 -11 53 -34z m710
11 c0 -7 -9 -21 -20 -31 -16 -15 -22 -15 -35 -5 -19 16 -19 29 1 51 13 14 21
16 35 8 11 -5 19 -16 19 -23z m255 20 c18 -13 18 -14 -1 -39 -23 -32 -26 -32
-47 -9 -15 16 -15 20 -1 40 18 26 24 27 49 8z m-1402 -30 c13 -20 14 -26 3
-35 -9 -8 -19 -4 -37 15 -20 21 -21 27 -9 34 22 14 26 13 43 -14z m277 -21 c0
-7 -7 -18 -15 -25 -13 -10 -19 -10 -35 5 -25 22 -25 41 -3 54 19 10 53 -11 53
-34z m260 -20 c-18 -21 -36 -19 -55 8 -15 21 -14 23 6 39 20 17 22 17 41 -7
16 -21 18 -28 8 -40z m504 37 c7 -12 -22 -52 -38 -52 -8 0 -19 7 -26 15 -17
21 18 67 42 54 9 -5 19 -13 22 -17z m266 -6 c0 -7 -9 -21 -20 -31 -16 -15 -22
-15 -35 -5 -19 16 -19 29 1 51 13 14 21 16 35 8 11 -5 19 -16 19 -23z m248 25
c11 -6 8 -14 -10 -36 -20 -23 -26 -25 -36 -13 -9 11 -8 19 4 36 17 24 22 26
42 13z m-1438 -56 c0 -7 -7 -18 -15 -25 -13 -10 -19 -10 -35 5 -25 22 -25 41
-3 54 19 10 53 -11 53 -34z m1350 11 c0 -7 -9 -21 -20 -31 -16 -15 -22 -15
-35 -5 -19 16 -19 29 1 51 13 14 21 16 35 8 11 -5 19 -16 19 -23z m-1095 4
c15 -16 15 -22 5 -35 -17 -20 -33 -19 -55 5 -15 16 -15 22 -5 35 17 20 33 19
55 -5z m823 7 c9 -10 7 -19 -4 -35 -18 -26 -37 -28 -54 -7 -10 13 -10 19 5 35
21 23 38 25 53 7z m-987 -19 c24 -30 24 -35 -3 -49 -18 -10 -24 -8 -40 11 -17
21 -17 24 -2 41 21 24 22 24 45 -3z m1153 -6 c7 -12 -22 -52 -38 -52 -8 0 -19
7 -26 15 -17 21 18 67 42 54 9 -5 19 -13 22 -17z m-888 1 c19 -25 17 -36 -6
-51 -17 -10 -22 -9 -36 13 -13 20 -14 28 -4 40 16 20 30 19 46 -2z m613 3 c10
-12 9 -20 -4 -40 -16 -25 -24 -25 -52 -4 -9 8 -9 15 4 34 17 27 35 31 52 10z
m-1038 -18 c33 -40 19 -52 -21 -20 -13 11 -20 24 -16 30 10 17 15 15 37 -10z
m1456 5 c4 -11 -46 -48 -54 -39 -3 2 3 16 14 30 18 25 34 29 40 9z m-1191 -10
c19 -25 17 -36 -6 -51 -17 -10 -22 -9 -36 13 -13 20 -14 28 -4 40 16 20 30 19
46 -2z m934 2 c10 -12 9 -20 -4 -40 -16 -24 -18 -24 -41 -9 -24 15 -24 17 -7
40 20 27 35 30 52 9z m-1091 -24 l21 -29 -25 -16 c-23 -15 -25 -15 -41 9 -16
24 -16 27 1 45 10 11 19 20 21 20 1 0 12 -13 23 -29z m841 8 c0 -14 -17 -10
-23 5 -4 10 -1 13 9 9 7 -3 14 -9 14 -14z m406 -43 c-16 -25 -18 -25 -41 -10
l-25 16 21 30 22 30 20 -20 c19 -20 19 -22 3 -46z m-983 30 c15 -22 15 -25 -2
-40 -23 -21 -26 -21 -46 11 -17 25 -17 27 1 40 24 18 29 17 47 -11z m720 10
c18 -14 18 -16 2 -40 -20 -31 -23 -31 -46 -10 -17 15 -17 18 -2 40 18 28 21
28 46 10z m-879 -28 c14 -20 14 -24 -1 -40 -21 -23 -24 -23 -47 9 -19 25 -19
26 -1 39 25 19 31 18 49 -8z m239 -20 c-21 -20 -23 -21 -29 -3 -9 22 24 51 40
35 7 -7 3 -17 -11 -32z m547 5 c0 -21 -17 -23 -35 -3 -22 24 -11 44 15 27 11
-6 20 -17 20 -24z m253 22 c18 -13 18 -14 0 -39 -22 -31 -25 -31 -46 -8 -15
16 -15 20 -1 40 18 26 23 26 47 7z m-923 -55 c0 -4 -7 -13 -15 -20 -13 -10
-19 -10 -35 5 -25 22 -25 41 -2 54 13 8 21 6 35 -10 9 -12 17 -25 17 -29z
m250 -151 c17 -41 30 -79 30 -83 0 -4 -27 14 -60 39 -33 25 -92 62 -132 82
l-73 36 45 15 c27 9 62 33 90 62 l45 47 13 -61 c7 -34 26 -95 42 -137z m406
111 c19 -12 47 -25 62 -29 26 -7 24 -9 -38 -39 -36 -17 -96 -54 -133 -82 -38
-27 -70 -50 -72 -50 -2 0 9 28 25 63 15 34 36 100 46 146 l18 83 29 -35 c15
-20 44 -46 63 -57z m174 56 c0 -7 -9 -21 -20 -31 -19 -17 -22 -17 -37 -2 -15
15 -15 18 1 42 14 21 20 24 36 15 11 -6 20 -17 20 -24z m-991 -34 c-3 -7 -17
-5 -39 4 -34 15 -34 16 -15 30 17 13 21 12 38 -5 11 -10 18 -24 16 -29z m1145
19 c-5 -4 -21 -12 -36 -19 -33 -14 -38 0 -12 29 13 14 21 16 36 8 11 -6 16
-14 12 -18z m-897 3 c5 -15 -44 -36 -53 -23 -3 5 0 17 7 25 13 16 40 15 46 -2z
m633 1 c18 -22 3 -36 -25 -23 -26 11 -30 20 -18 31 11 11 30 8 43 -8z m-770
-47 c0 -11 -23 -10 -56 2 -26 10 -26 11 -9 30 18 20 18 20 42 -2 13 -12 23
-25 23 -30z m925 32 c17 -19 17 -20 -9 -30 -48 -18 -58 -9 -34 30 16 25 20 25
43 0z"/>
<path d="M3745 2205 c-46 -45 -22 -115 39 -115 64 0 92 74 46 120 -27 27 -56
25 -85 -5z"/>
<path d="M599 2201 c-27 -22 -32 -83 -8 -105 29 -29 66 -30 93 -2 35 34 35 78
0 105 -33 26 -55 26 -85 2z"/>
<path d="M1405 780 c-3 -5 6 -17 20 -26 14 -9 25 -20 25 -25 0 -4 -19 -38 -41
-74 -29 -46 -39 -69 -31 -77 7 -7 14 -3 23 13 6 13 27 48 46 77 l34 54 25 -17
c15 -10 30 -13 35 -8 5 5 -22 27 -61 50 -38 23 -72 38 -75 33z"/>
<path d="M2985 738 c-11 -6 -30 -17 -42 -24 l-22 -14 46 -82 c26 -46 48 -84
49 -86 1 -2 17 4 36 13 82 42 102 92 48 123 -18 10 -30 25 -30 38 0 40 -42 56
-85 32z m63 -35 c2 -16 -6 -28 -30 -43 l-33 -20 -12 23 c-17 31 -16 35 15 51
35 20 56 16 60 -11z m36 -49 c28 -11 19 -52 -16 -74 l-33 -20 -17 23 c-10 12
-18 27 -18 33 0 8 37 32 67 43 1 1 8 -2 17 -5z"/>
<path d="M1521 616 l-40 -91 57 -27 c61 -28 82 -33 82 -19 0 5 -22 18 -50 30
-54 23 -56 27 -39 65 l11 24 45 -19 c49 -21 63 -23 63 -11 0 4 -23 18 -50 29
-49 21 -50 22 -39 47 15 31 21 31 78 6 24 -11 46 -18 49 -15 9 9 -10 22 -69
48 l-57 25 -41 -92z"/>
<path d="M2870 681 c0 -6 11 -36 25 -68 30 -68 29 -92 -6 -112 -39 -22 -57 -8
-91 69 -29 66 -48 88 -48 56 0 -21 46 -121 65 -139 32 -33 117 -10 128 34 7
26 -42 160 -60 167 -7 2 -13 -1 -13 -7z"/>
<path d="M1696 556 c-29 -92 -31 -106 -16 -106 5 0 19 33 31 73 l22 72 29 -92
c17 -54 35 -93 42 -93 8 0 24 37 39 88 31 101 31 105 16 100 -6 -2 -21 -35
-34 -73 l-22 -70 -28 93 c-16 54 -33 92 -41 92 -7 0 -24 -36 -38 -84z"/>
<path d="M2614 583 c3 -10 13 -49 22 -88 9 -38 20 -74 24 -78 10 -11 120 13
120 26 0 8 -36 6 -92 -6 -7 -1 -20 34 -32 81 -13 53 -25 82 -34 82 -8 0 -11
-7 -8 -17z"/>
<path d="M1896 568 c-6 -24 -26 -162 -26 -173 0 -4 6 -5 13 -3 7 3 17 37 23
79 l11 74 42 -87 c23 -49 48 -88 55 -88 9 0 17 27 24 83 14 99 15 117 3 117
-10 0 -15 -22 -26 -105 l-7 -50 -44 88 c-46 90 -60 103 -68 65z"/>
<path d="M2454 557 c-23 -20 -27 -32 -27 -71 0 -84 59 -130 130 -101 31 13 56
50 46 68 -7 12 -23 8 -23 -6 0 -21 -34 -47 -62 -47 -34 0 -59 30 -65 78 -4 32
-1 44 16 61 25 25 58 27 83 4 13 -12 22 -13 29 -6 16 16 -28 43 -68 43 -19 0
-43 -9 -59 -23z"/>
<path d="M2106 533 c-13 -69 -18 -173 -8 -173 17 0 19 10 27 108 5 61 4 92 -3
92 -6 0 -13 -12 -16 -27z"/>
<path d="M2187 542 c-20 -22 -22 -55 -4 -70 7 -6 34 -16 60 -23 27 -6 51 -18
54 -26 16 -40 -75 -62 -99 -23 -17 27 -38 26 -31 -1 3 -12 21 -28 40 -36 47
-19 100 -3 109 34 10 37 -6 56 -60 74 -60 20 -73 33 -56 54 18 22 67 19 82 -5
16 -25 28 -26 28 0 0 40 -92 56 -123 22z"/>
</g>
</svg>
